<?xml version="1.0" standalone="no"?>
<!DOCTYPE svg PUBLIC "-//W3C//DTD SVG 20010904//EN"
 "http://www.w3.org/TR/2001/REC-SVG-20010904/DTD/svg10.dtd">
<svg version="1.0" xmlns="http://www.w3.org/2000/svg"
 width="426.000000pt" height="426.000000pt" viewBox="0 0 426.000000 426.000000"
 preserveAspectRatio="xMidYMid meet">
<metadata>
Created by potrace 1.14, written by Peter Selinger 2001-2017
</metadata>
<g transform="translate(0.000000,426.000000) scale(0.100000,-0.100000)"
fill="#000000" stroke="none">
<path d="M2 2133 l3 -2128 874 0 874 0 33 90 c19 50 34 95 34 100 0 7 -277 10
-812 10 l-813 0 0 1930 0 1930 873 0 c479 0 872 -1 872 -1 0 -1 -162 -455
-361 -1010 -199 -555 -374 -1044 -389 -1088 l-27 -78 -16 43 c-9 24 -37 105
-62 179 -162 471 -188 545 -191 549 -6 6 -213 5 -220 -2 -3 -3 31 -106 76
-229 44 -123 86 -236 92 -253 6 -16 16 -43 23 -60 7 -16 49 -132 95 -257 l83
-227 119 2 120 2 58 160 c32 88 110 304 175 480 64 176 168 460 230 630 62
171 182 497 265 725 83 228 169 463 190 523 l39 107 -1120 0 -1119 0 2 -2127z"/>
<path d="M2422 4168 c-18 -51 -32 -95 -32 -98 0 -3 374 -5 830 -5 731 0 831
-2 834 -15 2 -8 4 -877 4 -1931 l-1 -1916 -893 0 c-492 0 -894 3 -894 7 0 7
101 284 167 460 13 36 26 70 27 75 2 6 6 17 9 25 9 24 76 207 237 650 83 228
153 417 155 419 5 5 425 5 429 0 1 -2 19 -49 38 -104 l36 -100 98 -2 c55 -1
104 -1 110 2 10 3 -38 156 -76 240 -5 11 -20 52 -33 90 -14 39 -39 106 -55
150 -16 44 -53 143 -81 220 -28 77 -66 181 -85 230 l-33 90 -133 0 -134 0 -28
-75 c-15 -41 -36 -97 -47 -125 -10 -27 -49 -133 -86 -235 -37 -102 -80 -219
-95 -260 -39 -105 -274 -743 -320 -870 -52 -143 -342 -929 -373 -1012 -15 -38
-23 -69 -19 -69 4 -1 517 -2 1139 -3 751 -1 1134 2 1136 9 2 5 3 962 3 2125
l-1 2115 -900 3 -901 2 -32 -92z m695 -1820 c17 -51 48 -140 68 -198 20 -58
37 -109 38 -114 1 -6 -59 -10 -145 -11 -82 0 -148 0 -148 2 0 1 28 79 61 175
34 95 66 188 71 206 5 17 12 32 16 32 4 0 22 -42 39 -92z"/>
<path d="M2048 2675 c-2 -2 -23 -5 -47 -9 -61 -8 -148 -50 -187 -90 -57 -58
-78 -111 -77 -196 0 -88 21 -139 78 -188 50 -45 90 -63 250 -116 141 -47 163
-59 202 -109 25 -32 22 -77 -6 -117 -58 -82 -236 -68 -302 23 -16 22 -29 47
-29 56 0 33 -14 41 -50 31 -19 -5 -46 -11 -60 -14 -55 -10 -112 -25 -118 -30
-15 -15 31 -117 74 -165 150 -167 496 -181 649 -27 83 83 106 210 58 317 -40
89 -101 129 -298 195 -77 25 -157 56 -177 67 -78 43 -72 132 12 175 37 19 56
22 102 18 91 -8 148 -49 163 -117 5 -22 11 -28 23 -25 10 3 57 15 105 27 87
21 88 22 82 48 -28 114 -125 199 -260 230 -47 11 -180 22 -187 16z"/>
</g>
</svg>
