<?xml version="1.0" encoding="UTF-8"?> <!-- Generator: Adobe Illustrator 24.3.0, SVG Export Plug-In . SVG Version: 6.00 Build 0) --> <svg xmlns="http://www.w3.org/2000/svg" xmlns:xlink="http://www.w3.org/1999/xlink" version="1.1" id="Ebene_1" x="0px" y="0px" viewBox="0 0 228 290" style="enable-background:new 0 0 228 290;" xml:space="preserve"> <g> <g> <path d="M11.1,257.3c2.3,0,4.2,0.7,5.6,2.3c1.4,1.5,2.1,3.4,2.1,5.6c0,2.2-0.7,4.1-2.1,5.5c-1.4,1.4-3.3,2.2-5.6,2.2h-5v8.7H1 v-24.2H11.1z M10.3,268.6c1.2,0,2.1-0.3,2.8-0.9c0.6-0.6,0.9-1.5,0.9-2.6c0-1.1-0.3-1.9-0.9-2.6s-1.5-1-2.8-1H6.1v7.1H10.3z"></path> <path d="M22.1,281.5v-25.7H27v25.7H22.1z"></path> <path d="M46.1,276.8c0,1.8,0.1,3.2,0.4,4.2v0.5H42l-0.4-1.9c-0.6,0.7-1.4,1.3-2.4,1.7c-1,0.4-2,0.6-3.1,0.6 c-0.6,0-1.1-0.1-1.6-0.2c-0.5-0.1-1-0.3-1.4-0.5c-0.5-0.2-0.9-0.5-1.2-0.9c-0.3-0.4-0.6-0.8-0.8-1.4c-0.2-0.6-0.3-1.2-0.3-1.9 c0-0.7,0.1-1.3,0.3-1.9c0.2-0.6,0.5-1,0.8-1.4c0.3-0.4,0.8-0.7,1.4-1c0.6-0.3,1.1-0.5,1.7-0.7c0.6-0.2,1.3-0.4,2-0.5l2.8-0.6 c0.6-0.1,1-0.3,1.3-0.5c0.3-0.2,0.4-0.5,0.4-0.9c0-0.8-0.3-1.3-0.8-1.7c-0.6-0.3-1.2-0.5-2-0.5c-2,0-3.1,0.9-3.4,2.6l-4.3-0.8 c0.4-1.8,1.2-3.1,2.5-3.9c1.3-0.8,3.1-1.3,5.4-1.3c4.8,0,7.2,2.1,7.2,6.2V276.8z M37.6,278.6c1.2,0,2.2-0.4,3-1.2 c0.8-0.8,1.2-2.1,1.2-3.7l-4.1,1.2c-0.7,0.2-1.3,0.4-1.7,0.7c-0.4,0.3-0.6,0.7-0.6,1.2c0,0.6,0.2,1,0.6,1.4S37,278.6,37.6,278.6z"></path> <path d="M57.2,281.5c-1.7,0-3-0.5-3.9-1.4c-0.9-0.9-1.4-2.3-1.4-4V268h-3.4v-3.7h1.1c1,0,1.7-0.2,2.1-0.7c0.5-0.5,0.7-1.3,0.7-2.6 v-2.3h4.3v5.6h3.6v3.7h-3.6v7.6c0,1.5,0.7,2.2,2,2.2h1.6v3.7H57.2z"></path> <path d="M71.1,281.5c-1.7,0-3-0.5-3.9-1.4c-0.9-0.9-1.4-2.3-1.4-4V268h-3.4v-3.7h1.1c1,0,1.7-0.2,2.1-0.7c0.5-0.5,0.7-1.3,0.7-2.6 v-2.3h4.3v5.6h3.6v3.7h-3.6v7.6c0,1.5,0.7,2.2,2,2.2h1.6v3.7H71.1z"></path> <path d="M93.8,272.6l-0.1,1.2H81c0.1,1.4,0.6,2.4,1.4,3.1c0.8,0.7,1.8,1.1,3,1.1c0.9,0,1.6-0.2,2.3-0.6c0.6-0.4,1.1-1,1.4-1.7 l4.4,0.7c-0.6,1.7-1.6,3.1-3,4c-1.4,1-3.1,1.4-5.1,1.4c-2.8,0-5-0.8-6.7-2.4c-1.7-1.6-2.5-3.8-2.5-6.6c0-2.8,0.8-5,2.5-6.6 c1.7-1.6,3.8-2.4,6.5-2.4c2.6,0,4.6,0.7,6.2,2.2C93,267.6,93.8,269.8,93.8,272.6z M85.3,267.3c-2.3,0-3.7,1.1-4.2,3.3h7.9 c-0.1-1.1-0.5-1.9-1.2-2.5C87.2,267.6,86.4,267.3,85.3,267.3z"></path> <path d="M107.7,264c2.1,0,3.6,0.5,4.8,1.5c1.1,1,1.7,2.5,1.7,4.4v11.6h-4.8V271c0-1.1-0.3-1.9-0.9-2.4c-0.6-0.5-1.3-0.8-2.2-0.8 c-0.5,0-1,0.1-1.4,0.2c-0.4,0.1-0.8,0.4-1.2,0.7c-0.4,0.3-0.7,0.7-0.9,1.3c-0.2,0.6-0.3,1.2-0.3,2v9.5h-4.8v-17.2h4.8v1.9 C103.6,264.7,105.4,264,107.7,264z"></path> <path d="M128.8,264c1.1,0,2.2,0.2,3.2,0.6c1,0.4,1.9,1,2.6,1.7c0.8,0.8,1.3,1.7,1.8,2.8c0.4,1.1,0.7,2.4,0.7,3.8 c0,1.4-0.2,2.6-0.7,3.8c-0.4,1.1-1,2.1-1.8,2.8c-0.8,0.8-1.6,1.3-2.6,1.7c-1,0.4-2.1,0.6-3.2,0.6c-1.2,0-2.3-0.2-3.3-0.7 c-1-0.5-1.7-1.1-2.2-2l-0.1,2.2h-4.6v-25.7h4.8v10.6c0.5-0.8,1.2-1.4,2.2-1.8C126.6,264.2,127.7,264,128.8,264z M127.7,277.9 c1.3,0,2.4-0.5,3.3-1.4c0.9-0.9,1.3-2.1,1.3-3.6c0-1.5-0.4-2.7-1.3-3.6c-0.9-0.9-2-1.4-3.3-1.4c-1.3,0-2.4,0.5-3.2,1.4 c-0.9,0.9-1.3,2.1-1.3,3.6c0,1.5,0.4,2.7,1.3,3.6C125.3,277.4,126.4,277.9,127.7,277.9z"></path> <path d="M157.2,272.6l-0.1,1.2h-12.8c0.1,1.4,0.6,2.4,1.4,3.1c0.8,0.7,1.8,1.1,3,1.1c0.9,0,1.6-0.2,2.3-0.6c0.6-0.4,1.1-1,1.4-1.7 l4.4,0.7c-0.6,1.7-1.6,3.1-3,4c-1.4,1-3.1,1.4-5.1,1.4c-2.8,0-5-0.8-6.7-2.4c-1.7-1.6-2.5-3.8-2.5-6.6c0-2.8,0.8-5,2.5-6.6 c1.7-1.6,3.8-2.4,6.5-2.4c2.6,0,4.6,0.7,6.2,2.2S157.2,269.8,157.2,272.6z M148.7,267.3c-2.3,0-3.7,1.1-4.2,3.3h7.9 c-0.1-1.1-0.5-1.9-1.2-2.5C150.6,267.6,149.8,267.3,148.7,267.3z"></path> <path d="M161,281.5v-25.7h4.9v25.7H161z"></path> <path d="M185,276.8c0,1.8,0.1,3.2,0.4,4.2v0.5h-4.5l-0.4-1.9c-0.6,0.7-1.4,1.3-2.4,1.7c-1,0.4-2,0.6-3.1,0.6 c-0.6,0-1.1-0.1-1.6-0.2c-0.5-0.1-1-0.3-1.4-0.5c-0.5-0.2-0.9-0.5-1.2-0.9c-0.3-0.4-0.6-0.8-0.8-1.4c-0.2-0.6-0.3-1.2-0.3-1.9 c0-0.7,0.1-1.3,0.3-1.9c0.2-0.6,0.5-1,0.8-1.4c0.3-0.4,0.8-0.7,1.4-1c0.6-0.3,1.1-0.5,1.7-0.7c0.6-0.2,1.3-0.4,2-0.5l2.8-0.6 c0.6-0.1,1-0.3,1.3-0.5c0.3-0.2,0.4-0.5,0.4-0.9c0-0.8-0.3-1.3-0.8-1.7c-0.6-0.3-1.2-0.5-2-0.5c-2,0-3.1,0.9-3.4,2.6l-4.3-0.8 c0.4-1.8,1.2-3.1,2.5-3.9c1.3-0.8,3.1-1.3,5.4-1.3c4.8,0,7.2,2.1,7.2,6.2V276.8z M174.3,261.7c-0.8,0-1.4-0.3-2-0.8 c-0.5-0.5-0.8-1.2-0.8-2c0-0.8,0.3-1.4,0.8-1.9c0.6-0.5,1.2-0.8,2-0.8c0.7,0,1.4,0.3,1.9,0.8c0.5,0.5,0.8,1.2,0.8,1.9 c0,0.8-0.3,1.4-0.8,2C175.6,261.4,175,261.7,174.3,261.7z M176.5,278.6c1.2,0,2.2-0.4,3-1.2s1.2-2.1,1.2-3.7l-4.1,1.2 c-0.7,0.2-1.3,0.4-1.7,0.7c-0.4,0.3-0.6,0.7-0.6,1.2c0,0.6,0.2,1,0.6,1.4S175.9,278.6,176.5,278.6z M181.5,261.7 c-0.8,0-1.4-0.3-2-0.8c-0.5-0.5-0.8-1.2-0.8-2c0-0.8,0.3-1.4,0.8-1.9c0.5-0.5,1.2-0.8,2-0.8c0.7,0,1.4,0.3,1.9,0.8 c0.5,0.5,0.8,1.2,0.8,1.9c0,0.8-0.3,1.4-0.8,2C182.9,261.4,182.2,261.7,181.5,261.7z"></path> <path d="M201.6,264.3h4.6v15.9c0,1.6-0.2,3.1-0.6,4.3c-0.4,1.2-1.1,2.2-1.9,2.9c-0.8,0.7-1.8,1.3-2.9,1.6 c-1.1,0.4-2.3,0.5-3.7,0.5c-4.5,0-7.5-1.8-8.9-5.3l4-1.7c0.5,1.1,1.1,2,1.9,2.5c0.7,0.5,1.7,0.8,2.8,0.8c3,0,4.5-1.8,4.5-5.3v-2 c-0.5,0.7-1.2,1.3-2.2,1.7c-0.9,0.4-1.9,0.6-3.1,0.6c-1.1,0-2.1-0.2-3-0.6c-1-0.4-1.8-1-2.5-1.7c-0.7-0.7-1.3-1.6-1.7-2.7 c-0.4-1.1-0.6-2.2-0.6-3.5c0-1.3,0.2-2.4,0.6-3.5c0.4-1.1,1-2,1.7-2.7c0.7-0.7,1.6-1.3,2.5-1.7c1-0.4,2-0.6,3-0.6 c1.2,0,2.2,0.2,3.2,0.7c0.9,0.5,1.7,1.1,2.1,1.9L201.6,264.3z M194.2,275.7c0.9,0.9,1.9,1.3,3.2,1.3c1.3,0,2.3-0.4,3.2-1.3 c0.9-0.9,1.3-2,1.3-3.3c0-1.3-0.4-2.4-1.3-3.3c-0.9-0.9-1.9-1.3-3.2-1.3c-1.3,0-2.3,0.4-3.2,1.3c-0.8,0.9-1.3,2-1.3,3.3 C192.9,273.7,193.3,274.8,194.2,275.7z"></path> <path d="M227.4,272.6l-0.1,1.2h-12.8c0.1,1.4,0.6,2.4,1.4,3.1c0.8,0.7,1.8,1.1,3,1.1c0.9,0,1.6-0.2,2.3-0.6s1.1-1,1.4-1.7l4.4,0.7 c-0.6,1.7-1.6,3.1-3,4c-1.4,1-3.1,1.4-5.1,1.4c-2.8,0-5-0.8-6.7-2.4c-1.7-1.6-2.5-3.8-2.5-6.6c0-2.8,0.8-5,2.5-6.6 c1.7-1.6,3.8-2.4,6.5-2.4c2.6,0,4.6,0.7,6.2,2.2C226.6,267.6,227.4,269.8,227.4,272.6z M218.9,267.3c-2.3,0-3.7,1.1-4.2,3.3h7.9 c-0.1-1.1-0.5-1.9-1.2-2.5C220.7,267.6,219.9,267.3,218.9,267.3z"></path> </g> <g> <path d="M120.1,141c2-0.4,3.8-1,5.6-1.9c1.7-0.9,3.3-1.9,4.6-3.2c1.3-1.3,2.3-2.8,3-4.7c0.7-1.9,1.1-3.9,1.1-6.2 c0-1.5-0.2-2.9-0.6-4.2c-0.4-1.3-0.9-2.4-1.5-3.4c-0.6-1-1.4-1.9-2.5-2.7c-1-0.9-2-1.6-2.9-2.1c-0.9-0.5-2-1.1-3.5-1.7 c-1.4-0.6-2.6-1-3.5-1.3c-0.9-0.3-2.2-0.7-3.7-1.1c-3.9-1.1-6.4-2-7.7-2.6c-2.7-1.2-4-2.9-4-4.9c0-2.2,0.8-3.8,2.4-4.8 c1.6-1.1,3.6-1.6,6.1-1.6c5.6,0,8.9,2.6,9.9,7.9l11-2.7c-0.5-2.5-1.5-4.8-2.9-6.7c-1.4-1.9-3.1-3.4-5.1-4.5 c-2-1.1-4.2-1.9-6.4-2.5c-2.3-0.5-4.7-0.8-7.2-0.8c-3.7,0-7,0.6-9.9,1.8c-2.9,1.2-5.2,3.1-6.9,5.5c-1.7,2.5-2.6,5.3-2.6,8.7 c0,1.4,0.2,2.7,0.5,3.9c0.4,1.2,0.8,2.3,1.3,3.2c0.5,0.9,1.3,1.7,2.2,2.5c0.9,0.8,1.8,1.5,2.6,2c0.8,0.5,1.9,1.1,3.2,1.6 c1.3,0.5,2.4,1,3.3,1.3c0.9,0.3,2.1,0.7,3.5,1.1c0.2,0,0.5,0.1,0.8,0.3c2.8,0.9,4.9,1.5,6.2,2c1.3,0.5,2.6,1.3,3.9,2.5 c1.3,1.2,1.9,2.5,1.9,4.1c0,2.2-0.7,3.9-2.3,5c-1.5,1.1-3.6,1.7-6,1.7c-3.1,0-5.7-0.8-7.7-2.4c-2-1.6-3.3-3.9-3.6-7l-11.8,2.7 c0.8,5.1,3.3,9,7.4,11.8c4.1,2.8,9.2,4.2,15.3,4.2C116,141.6,118.1,141.4,120.1,141z"></path> <polygon points="10.4,10.4 104.2,10.4 62.3,127.5 47.9,85.8 35.7,85.8 56,140.8 68.5,140.8 116.2,10.4 120,0 119.8,0 108.3,0 107.9,0 0,0 0,228 94,228 97.7,217.6 10.4,217.6 "></polygon> <path d="M131.7,0l-3.8,10.4h89.7v207.3h-96.4l32.2-88.2h23.1l4,11.4h11.7l-20.3-55h-14l-48.5,131.9h-0.1l-3.8,10.4h0h11.7H228V0 H131.7z M165.1,96.6l8.2,23.4h-16.4L165.1,96.6z"></path> </g> </g> </svg> 